<?xml version="1.0" encoding="UTF-8"?>
<!DOCTYPE svg PUBLIC "-//W3C//DTD SVG 1.1//EN" "http://www.w3.org/Graphics/SVG/1.1/DTD/svg11.dtd">
<svg xmlns="http://www.w3.org/2000/svg" version="1.1" width="366px" height="493px" style="shape-rendering:geometricPrecision; text-rendering:geometricPrecision; image-rendering:optimizeQuality; fill-rule:evenodd; clip-rule:evenodd" xmlns:xlink="http://www.w3.org/1999/xlink">
<g><path style="opacity:1" fill="#f9f9f9" d="M 218.5,230.5 C 218.303,237.43 216.97,244.096 214.5,250.5C 217.495,257.552 217.162,264.385 213.5,271C 213.612,283.023 210.612,294.356 204.5,305C 205.018,306.626 205.352,308.293 205.5,310C 204.19,319.457 203.357,328.957 203,338.5C 201.667,340.5 200.333,342.5 199,344.5C 198.718,350.216 198.052,355.883 197,361.5C 195.028,367.938 192.695,367.938 190,361.5C 187.159,355.816 185.659,349.816 185.5,343.5C 185.177,337.31 185.51,331.31 186.5,325.5C 187.203,331.828 189.203,337.661 192.5,343C 194.5,343.667 196.5,343.667 198.5,343C 196.291,341.127 194.458,338.96 193,336.5C 189.191,326.094 186.858,315.428 186,304.5C 187.316,309.477 190.316,312.811 195,314.5C 199.376,314.007 201.71,311.674 202,307.5C 197.997,310.501 194.664,309.835 192,305.5C 187.12,294.648 184.453,283.315 184,271.5C 185.72,276.446 188.554,280.613 192.5,284C 197.45,284.858 201.117,283.025 203.5,278.5C 200.553,277.679 197.553,277.179 194.5,277C 192.714,276.215 191.214,275.049 190,273.5C 187.319,265.777 184.486,258.11 181.5,250.5C 188.699,250.415 195.365,248.581 201.5,245C 191.114,247.474 183.447,243.974 178.5,234.5C 178.833,233.833 179.167,233.167 179.5,232.5C 174.47,224.933 175.803,223.099 183.5,227C 192.103,228.464 199.77,226.464 206.5,221C 206,220.833 205.5,220.667 205,220.5C 197.962,223.398 191.128,223.065 184.5,219.5C 191.567,217.812 198.567,215.646 205.5,213C 209.543,209.672 211.71,205.505 212,200.5C 210.491,202.919 208.325,203.919 205.5,203.5C 205.719,202.325 205.386,201.325 204.5,200.5C 203.708,202.465 203.041,204.465 202.5,206.5C 201.277,207.614 199.944,207.781 198.5,207C 195.481,203.808 192.814,200.308 190.5,196.5C 190.167,196.833 189.833,197.167 189.5,197.5C 191.983,200.8 193.65,204.467 194.5,208.5C 194.291,209.994 193.624,211.161 192.5,212C 186.317,212.365 181.984,209.532 179.5,203.5C 179.977,202.522 180.643,201.689 181.5,201C 175.722,200.906 170.056,200.239 164.5,199C 163.944,196.763 162.944,194.763 161.5,193C 158.088,191.545 154.921,189.712 152,187.5C 150.333,184.167 148.667,180.833 147,177.5C 148.718,167.464 149.884,157.297 150.5,147C 150.453,141.706 149.953,136.539 149,131.5C 150.861,133.888 152.194,136.554 153,139.5C 153.333,150.833 153.667,162.167 154,173.5C 155.059,179.293 157.893,183.959 162.5,187.5C 163.023,184.491 162.523,181.491 161,178.5C 160.833,175.833 160.667,173.167 160.5,170.5C 161.386,161.508 161.552,152.508 161,143.5C 158.842,142.174 157.008,140.507 155.5,138.5C 159.445,139.534 163.612,139.534 168,138.5C 172.78,137.194 176.613,134.527 179.5,130.5C 178.833,130.167 178.167,129.833 177.5,129.5C 170.968,132.588 164.301,133.088 157.5,131C 151.807,126.119 148.307,119.952 147,112.5C 144.694,103.966 142.027,103.633 139,111.5C 133.38,118.127 126.88,123.627 119.5,128C 116.513,128.274 115.179,126.774 115.5,123.5C 115.756,120.729 117.09,118.562 119.5,117C 116.786,118.327 113.786,119.161 110.5,119.5C 110.496,114.971 112.496,111.471 116.5,109C 126.984,103.436 136.317,96.4364 144.5,88C 147.154,87.0594 149.821,86.2261 152.5,85.5C 157.164,84.1124 161.831,82.6124 166.5,81C 171.428,79.0732 174.594,75.5732 176,70.5C 176.333,66.8333 176.667,63.1667 177,59.5C 178.558,57.6411 180.391,56.1411 182.5,55C 178.167,54.6667 173.833,54.3333 169.5,54C 166.452,53.3936 163.952,51.8936 162,49.5C 161.316,48.2161 161.483,47.0495 162.5,46C 165.5,45.6667 168.5,45.3333 171.5,45C 169.129,42.294 166.463,39.9606 163.5,38C 164.108,37.1301 164.941,36.6301 166,36.5C 167.3,37.7073 168.8,38.3739 170.5,38.5C 170.5,37.5 170.5,36.5 170.5,35.5C 163.75,34.8344 163.084,32.8344 168.5,29.5C 174.06,27.6724 174.726,24.8391 170.5,21C 171.551,19.6152 172.884,18.6152 174.5,18C 189.893,16.4033 195.726,23.2367 192,38.5C 190.587,43.3 188.087,47.4667 184.5,51C 186.743,50.6813 188.91,50.848 191,51.5C 191.914,55.1418 192.748,58.8085 193.5,62.5C 193.852,54.8667 194.018,47.2001 194,39.5C 194.957,43.9557 196.29,48.2891 198,52.5C 198.255,49.2069 199.755,48.0403 202.5,49C 200.106,47.0478 198.606,44.5478 198,41.5C 197.333,37.5 197.333,33.5 198,29.5C 207.543,37.7298 210.21,47.3965 206,58.5C 205.581,57.3279 204.915,56.3279 204,55.5C 202.386,63.4427 200.72,63.4427 199,55.5C 198.667,58.1667 198.333,60.8333 198,63.5C 196.301,64.4061 194.467,64.7394 192.5,64.5C 192.495,71.5128 195.162,77.1795 200.5,81.5C 201.983,84.6116 201.65,87.4449 199.5,90C 195.5,90.3333 191.5,90.6667 187.5,91C 192.165,92.3366 196.832,92.5033 201.5,91.5C 202.542,88.5768 203.875,85.9102 205.5,83.5C 210.624,85.3748 215.624,87.5415 220.5,90C 222.359,91.5578 223.859,93.3911 225,95.5C 228.964,104.082 233.297,112.416 238,120.5C 240.346,123.505 243.346,125.505 247,126.5C 247.667,128.833 247.667,131.167 247,133.5C 245.933,135.283 244.433,135.783 242.5,135C 240.668,131.639 238.335,129.472 235.5,128.5C 237.577,131.49 239.244,134.656 240.5,138C 240.563,140.942 239.23,141.942 236.5,141C 234.006,136.978 230.84,133.478 227,130.5C 222.032,122.588 219.699,113.922 220,104.5C 217.455,114.093 212.955,122.593 206.5,130C 199.247,135.04 192.414,134.54 186,128.5C 186.422,133.288 188.922,136.788 193.5,139C 197.924,139.18 202.257,139.347 206.5,139.5C 204.702,150.045 206.369,160.045 211.5,169.5C 208.93,170.702 206.43,172.035 204,173.5C 201.21,178.917 198.043,184.084 194.5,189C 197.093,188.454 199.26,186.954 201,184.5C 202.886,180.56 205.386,177.06 208.5,174C 211.025,173.104 213.192,173.604 215,175.5C 218.279,182.196 218.112,188.863 214.5,195.5C 216.71,198.463 217.71,201.797 217.5,205.5C 217.142,211.774 215.475,217.607 212.5,223C 214.417,222.973 216.084,222.139 217.5,220.5C 218.487,223.768 218.82,227.102 218.5,230.5 Z"/></g>
<g><path style="opacity:0.427" fill="#8a8a8a" d="M 167.5,21.5 C 167.34,23.1992 167.506,24.8659 168,26.5C 168.654,25.3044 169.154,25.3044 169.5,26.5C 169.043,27.2975 168.376,27.6309 167.5,27.5C 167.167,27.5 166.833,27.5 166.5,27.5C 166.205,25.2646 166.539,23.2646 167.5,21.5 Z"/></g>
<g><path style="opacity:1" fill="#121212" d="M 175.5,23.5 C 181.155,23.0538 184.655,25.3872 186,30.5C 184.737,28.2031 182.903,27.3698 180.5,28C 181.687,29.0195 182.687,30.1861 183.5,31.5C 180.911,32.205 178.244,32.205 175.5,31.5C 175.297,29.6096 175.963,28.1096 177.5,27C 176.027,26.2904 175.36,25.1238 175.5,23.5 Z"/></g>
<g><path style="opacity:0.396" fill="#aaaaaa" d="M 323.5,46.5 C 322.391,46.5569 321.391,46.8902 320.5,47.5C 321.053,45.4482 322.053,45.1148 323.5,46.5 Z"/></g>
<g><path style="opacity:0.999" fill="#313131" d="M 166.5,27.5 C 166.833,27.5 167.167,27.5 167.5,27.5C 167.833,28.1667 168.167,28.8333 168.5,29.5C 163.084,32.8344 163.75,34.8344 170.5,35.5C 170.5,36.5 170.5,37.5 170.5,38.5C 168.8,38.3739 167.3,37.7073 166,36.5C 164.941,36.6301 164.108,37.1301 163.5,38C 166.463,39.9606 169.129,42.294 171.5,45C 168.5,45.3333 165.5,45.6667 162.5,46C 161.483,47.0495 161.316,48.2161 162,49.5C 163.952,51.8936 166.452,53.3936 169.5,54C 173.833,54.3333 178.167,54.6667 182.5,55C 180.391,56.1411 178.558,57.6411 177,59.5C 176.667,63.1667 176.333,66.8333 176,70.5C 174.594,75.5732 171.428,79.0732 166.5,81C 161.831,82.6124 157.164,84.1124 152.5,85.5C 152.083,84.8761 151.416,84.5427 150.5,84.5C 147.58,85.5856 144.58,86.2523 141.5,86.5C 149,83.8665 156.667,81.3665 164.5,79C 170.19,76.6354 172.856,72.3021 172.5,66C 172.336,62.1702 171.003,58.8368 168.5,56C 165.397,54.5606 162.564,52.7272 160,50.5C 159.833,49.3333 159.667,48.1667 159.5,47C 160.009,43.9207 160.009,40.9207 159.5,38C 161.121,35.834 161.955,33.334 162,30.5C 163.129,28.8588 164.629,27.8588 166.5,27.5 Z"/></g>
<g><path style="opacity:1" fill="#212120" d="M 197.5,72.5 C 196.891,75.8784 198.224,77.8784 201.5,78.5C 208.967,81.5755 216.467,84.5755 224,87.5C 229.333,97.5 234.667,107.5 240,117.5C 242.657,120.61 245.991,122.61 250,123.5C 252.109,127.781 251.942,131.948 249.5,136C 250.056,136.383 250.389,136.883 250.5,137.5C 250.427,139.027 251.094,140.027 252.5,140.5C 257.934,147.174 263.268,154.007 268.5,161C 268.833,161.167 269.167,161.333 269.5,161.5C 270.521,160.099 271.521,158.765 272.5,157.5C 274.167,156.5 275.5,155.167 276.5,153.5C 277.338,153.842 277.672,154.508 277.5,155.5C 275.205,158.391 273.705,161.725 273,165.5C 271.132,166.672 269.298,166.505 267.5,165C 260.294,157.463 253.46,149.629 247,141.5C 242.571,144.868 240.571,149.201 241,154.5C 250.592,164.282 262.092,170.282 275.5,172.5C 274.167,173.167 272.833,173.833 271.5,174.5C 271.167,174.5 270.833,174.5 270.5,174.5C 262.614,173.386 255.614,170.386 249.5,165.5C 249.027,164.094 248.027,163.427 246.5,163.5C 241.466,160.968 237.132,157.468 233.5,153C 231.19,152.503 228.857,152.337 226.5,152.5C 226.768,150.901 226.434,149.568 225.5,148.5C 225.027,147.094 224.027,146.427 222.5,146.5C 220.289,141.456 217.456,136.789 214,132.5C 213.333,131.167 212.667,131.167 212,132.5C 208.114,141.677 207.614,151.011 210.5,160.5C 210.328,161.492 210.662,162.158 211.5,162.5C 214.506,167.691 217.339,173.024 220,178.5C 220.53,183.76 220.03,188.927 218.5,194C 219.27,199.24 220.27,204.407 221.5,209.5C 221.551,212.666 220.884,215.666 219.5,218.5C 220.246,219.736 220.579,221.07 220.5,222.5C 219.833,225.167 219.167,227.833 218.5,230.5C 218.82,227.102 218.487,223.768 217.5,220.5C 216.084,222.139 214.417,222.973 212.5,223C 215.475,217.607 217.142,211.774 217.5,205.5C 217.71,201.797 216.71,198.463 214.5,195.5C 218.112,188.863 218.279,182.196 215,175.5C 213.192,173.604 211.025,173.104 208.5,174C 205.386,177.06 202.886,180.56 201,184.5C 199.26,186.954 197.093,188.454 194.5,189C 198.043,184.084 201.21,178.917 204,173.5C 206.43,172.035 208.93,170.702 211.5,169.5C 206.369,160.045 204.702,150.045 206.5,139.5C 202.257,139.347 197.924,139.18 193.5,139C 188.922,136.788 186.422,133.288 186,128.5C 192.414,134.54 199.247,135.04 206.5,130C 212.955,122.593 217.455,114.093 220,104.5C 219.699,113.922 222.032,122.588 227,130.5C 230.84,133.478 234.006,136.978 236.5,141C 239.23,141.942 240.563,140.942 240.5,138C 239.244,134.656 237.577,131.49 235.5,128.5C 238.335,129.472 240.668,131.639 242.5,135C 244.433,135.783 245.933,135.283 247,133.5C 247.667,131.167 247.667,128.833 247,126.5C 243.346,125.505 240.346,123.505 238,120.5C 233.297,112.416 228.964,104.082 225,95.5C 223.859,93.3911 222.359,91.5578 220.5,90C 215.624,87.5415 210.624,85.3748 205.5,83.5C 203.875,85.9102 202.542,88.5768 201.5,91.5C 196.832,92.5033 192.165,92.3366 187.5,91C 191.5,90.6667 195.5,90.3333 199.5,90C 201.65,87.4449 201.983,84.6116 200.5,81.5C 195.162,77.1795 192.495,71.5128 192.5,64.5C 194.467,64.7394 196.301,64.4061 198,63.5C 198.333,60.8333 198.667,58.1667 199,55.5C 200.72,63.4427 202.386,63.4427 204,55.5C 204.915,56.3279 205.581,57.3279 206,58.5C 210.21,47.3965 207.543,37.7298 198,29.5C 197.333,33.5 197.333,37.5 198,41.5C 198.606,44.5478 200.106,47.0478 202.5,49C 199.755,48.0403 198.255,49.2069 198,52.5C 196.29,48.2891 194.957,43.9557 194,39.5C 194.018,47.2001 193.852,54.8667 193.5,62.5C 192.748,58.8085 191.914,55.1418 191,51.5C 188.91,50.848 186.743,50.6813 184.5,51C 188.087,47.4667 190.587,43.3 192,38.5C 195.726,23.2367 189.893,16.4033 174.5,18C 172.884,18.6152 171.551,19.6152 170.5,21C 174.726,24.8391 174.06,27.6724 168.5,29.5C 168.167,28.8333 167.833,28.1667 167.5,27.5C 168.376,27.6309 169.043,27.2975 169.5,26.5C 169.154,25.3044 168.654,25.3044 168,26.5C 167.506,24.8659 167.34,23.1992 167.5,21.5C 169.875,18.4432 171.875,15.1098 173.5,11.5C 176.555,9.73981 178.388,7.07314 179,3.5C 180.441,2.74022 181.941,2.07356 183.5,1.5C 185.955,2.31499 188.289,3.31499 190.5,4.5C 197.882,-0.666801 202.882,0.999865 205.5,9.5C 206.646,10.1449 207.646,10.9783 208.5,12C 217.901,12.6113 220.901,17.4447 217.5,26.5C 218.803,28.9676 220.303,31.301 222,33.5C 222.667,35.1667 222.667,36.8333 222,38.5C 219.033,43.9232 215.366,48.9232 211,53.5C 209.532,59.6389 205.866,63.9723 200,66.5C 199.062,68.4885 198.228,70.4885 197.5,72.5 Z"/></g>
<g><path style="opacity:1" fill="#868686" d="M 212.5,36.5 C 213.434,37.5676 213.768,38.901 213.5,40.5C 212.143,41.5903 211.143,42.9236 210.5,44.5C 210.607,42.6214 210.107,42.2881 209,43.5C 208.51,42.2068 208.343,40.8734 208.5,39.5C 209.222,39.9175 209.722,40.5842 210,41.5C 211.372,40.0899 212.205,38.4233 212.5,36.5 Z"/></g>
<g><path style="opacity:1" fill="#f6f6f6" d="M 213.5,40.5 C 213.736,43.8294 212.903,46.8294 211,49.5C 210.506,47.8659 210.34,46.1992 210.5,44.5C 211.143,42.9236 212.143,41.5903 213.5,40.5 Z"/></g>
<g><path style="opacity:1" fill="#f0f0f0" d="M 202.5,21.5 C 203.239,21.369 203.906,21.5357 204.5,22C 208.606,26.0467 211.273,30.8801 212.5,36.5C 212.205,38.4233 211.372,40.0899 210,41.5C 209.722,40.5842 209.222,39.9175 208.5,39.5C 208.665,36.1501 208.498,32.8168 208,29.5C 207.178,31.7885 206.511,34.1218 206,36.5C 204.293,34.0912 203.46,31.4245 203.5,28.5C 203.702,26.0504 203.369,23.717 202.5,21.5 Z"/></g>
<g><path style="opacity:1" fill="#787878" d="M 202.5,21.5 C 203.369,23.717 203.702,26.0504 203.5,28.5C 202.833,27.8333 202.167,27.1667 201.5,26.5C 201.216,24.5853 201.549,22.9187 202.5,21.5 Z"/></g>
<g><path style="opacity:1" fill="#dfdfdf" d="M 211.5,17.5 C 211.56,16.9569 211.893,16.6236 212.5,16.5C 215.729,17.8745 216.896,20.2079 216,23.5C 214.637,21.3162 213.137,19.3162 211.5,17.5 Z"/></g>
<g><path style="opacity:1" fill="#ededed" d="M 202.5,21.5 C 201.549,22.9187 201.216,24.5853 201.5,26.5C 201.741,29.999 200.908,30.3323 199,27.5C 198.209,24.0407 197.209,20.7074 196,17.5C 196.419,23.1628 195.086,24.1628 192,20.5C 190.872,18.6547 190.372,16.6547 190.5,14.5C 193.911,15.3597 197.244,16.5263 200.5,18C 201.305,19.1127 201.972,20.2794 202.5,21.5 Z"/></g>
<g><path style="opacity:1" fill="#b5b5b5" d="M 185.5,13.5 C 186.833,13.5 188.167,13.5 189.5,13.5C 188.759,18.5028 187.426,18.5028 185.5,13.5 Z"/></g>
<g><path style="opacity:1" fill="#d3d3d3" d="M 177.5,13.5 C 179.604,13.2011 181.604,13.5344 183.5,14.5C 181.235,15.6474 178.902,15.8141 176.5,15C 177.056,14.6174 177.389,14.1174 177.5,13.5 Z"/></g>
<g><path style="opacity:1" fill="#e6e6e6" d="M 185.5,7.5 C 204.356,9.52079 214.523,19.8541 216,38.5C 211.29,21.4598 200.124,11.9598 182.5,10C 183.571,9.14825 184.571,8.31491 185.5,7.5 Z"/></g>
<g><path style="opacity:1" fill="#dedede" d="M 181.5,5.5 C 182.552,5.35055 183.552,5.51722 184.5,6C 183.069,6.46524 181.903,7.29857 181,8.5C 180.53,7.42317 180.697,6.42317 181.5,5.5 Z"/></g>
<g><path style="opacity:1" fill="#cfcfcf" d="M 195.5,4.5 C 198.278,4.02166 200.278,5.02166 201.5,7.5C 201.167,7.83333 200.833,8.16667 200.5,8.5C 198.615,7.39064 196.615,6.55731 194.5,6C 195.056,5.61742 195.389,5.11742 195.5,4.5 Z"/></g>
<g><path style="opacity:1" fill="#f3f3f3" d="M 308.5,102.5 C 306.928,105.318 305.594,108.318 304.5,111.5C 304.682,113.675 305.349,115.675 306.5,117.5C 306.375,123.099 306.209,128.765 306,134.5C 302.259,135.529 298.759,135.529 295.5,134.5C 293.97,142.096 292.304,149.596 290.5,157C 285.492,157.878 283.492,155.712 284.5,150.5C 285.552,150.649 286.552,150.483 287.5,150C 283.218,146.517 283.718,144.017 289,142.5C 290.15,139.232 290.984,135.899 291.5,132.5C 289.418,132.528 287.584,131.861 286,130.5C 284.306,123.672 286.806,119.005 293.5,116.5C 294.244,115.009 294.91,113.509 295.5,112C 297.473,111.505 299.473,111.338 301.5,111.5C 302.597,106.4 303.763,101.4 305,96.5C 303.092,94.0935 301.092,94.0935 299,96.5C 294.255,94.9774 289.422,93.8107 284.5,93C 281.872,89.1323 281.872,85.299 284.5,81.5C 283.027,79.6053 281.36,77.9387 279.5,76.5C 280.831,75.8338 282.331,75.8338 284,76.5C 293.916,69.3488 299.583,72.0155 301,84.5C 302.299,85.09 303.132,86.09 303.5,87.5C 301.82,90.4797 302.654,92.4797 306,93.5C 308.424,88.9841 310.59,84.3174 312.5,79.5C 308.005,77.1756 307.339,74.0089 310.5,70C 308.856,66.6405 308.356,63.1405 309,59.5C 311.79,56.9199 314.624,56.9199 317.5,59.5C 319.111,58.6798 319.778,57.3464 319.5,55.5C 320.315,54.5707 321.148,53.5707 322,52.5C 321.872,55.4856 321.872,58.4856 322,61.5C 324.657,62.5729 326.823,64.2395 328.5,66.5C 325.988,70.0979 322.988,73.2645 319.5,76C 319.735,76.8732 320.069,77.7065 320.5,78.5C 318.833,79.1667 317.167,79.8333 315.5,80.5C 313.735,85.2959 312.068,90.1293 310.5,95C 310.613,96.2798 311.28,97.1131 312.5,97.5C 315.029,94.7297 317.362,94.8963 319.5,98C 330.497,97.1404 333.83,101.64 329.5,111.5C 330.313,112.814 331.313,113.981 332.5,115C 329.079,114.879 326.412,116.212 324.5,119C 321.653,119.944 319.153,119.444 317,117.5C 316.667,114.5 316.333,111.5 316,108.5C 313.391,106.892 312.058,104.559 312,101.5C 310.244,100.015 309.077,100.348 308.5,102.5 Z"/></g>
<g><path style="opacity:1" fill="#0f0f0f" d="M 312.5,63.5 C 313.833,63.5 315.167,63.5 316.5,63.5C 314.695,72.6584 313.361,72.6584 312.5,63.5 Z"/></g>
<g><path style="opacity:1" fill="#1c1c1c" d="M 321.5,65.5 C 322.833,65.5 324.167,65.5 325.5,65.5C 325.325,69.4093 323.325,71.2427 319.5,71C 320.861,69.4157 321.528,67.5824 321.5,65.5 Z"/></g>
<g><path style="opacity:0.655" fill="#959595" d="M 282.5,73.5 C 279.918,73.0254 277.918,73.6921 276.5,75.5C 275.596,74.791 275.263,73.791 275.5,72.5C 278.059,72.1984 280.393,72.5318 282.5,73.5 Z"/></g>
<g><path style="opacity:0.714" fill="#878787" d="M 197.5,72.5 C 198.377,74.7278 199.71,76.7278 201.5,78.5C 198.224,77.8784 196.891,75.8784 197.5,72.5 Z"/></g>
<g><path style="opacity:1" fill="#141212" d="M 152.5,85.5 C 149.821,86.2261 147.154,87.0594 144.5,88C 136.317,96.4364 126.984,103.436 116.5,109C 112.496,111.471 110.496,114.971 110.5,119.5C 113.786,119.161 116.786,118.327 119.5,117C 117.09,118.562 115.756,120.729 115.5,123.5C 115.179,126.774 116.513,128.274 119.5,128C 126.88,123.627 133.38,118.127 139,111.5C 142.027,103.633 144.694,103.966 147,112.5C 148.307,119.952 151.807,126.119 157.5,131C 164.301,133.088 170.968,132.588 177.5,129.5C 178.167,129.833 178.833,130.167 179.5,130.5C 176.613,134.527 172.78,137.194 168,138.5C 163.612,139.534 159.445,139.534 155.5,138.5C 157.008,140.507 158.842,142.174 161,143.5C 161.552,152.508 161.386,161.508 160.5,170.5C 160.667,173.167 160.833,175.833 161,178.5C 162.523,181.491 163.023,184.491 162.5,187.5C 157.893,183.959 155.059,179.293 154,173.5C 153.667,162.167 153.333,150.833 153,139.5C 152.194,136.554 150.861,133.888 149,131.5C 149.953,136.539 150.453,141.706 150.5,147C 149.884,157.297 148.718,167.464 147,177.5C 148.667,180.833 150.333,184.167 152,187.5C 154.921,189.712 158.088,191.545 161.5,193C 162.944,194.763 163.944,196.763 164.5,199C 170.056,200.239 175.722,200.906 181.5,201C 180.643,201.689 179.977,202.522 179.5,203.5C 181.984,209.532 186.317,212.365 192.5,212C 193.624,211.161 194.291,209.994 194.5,208.5C 193.65,204.467 191.983,200.8 189.5,197.5C 189.833,197.167 190.167,196.833 190.5,196.5C 192.814,200.308 195.481,203.808 198.5,207C 199.944,207.781 201.277,207.614 202.5,206.5C 203.041,204.465 203.708,202.465 204.5,200.5C 205.386,201.325 205.719,202.325 205.5,203.5C 208.325,203.919 210.491,202.919 212,200.5C 211.71,205.505 209.543,209.672 205.5,213C 198.567,215.646 191.567,217.812 184.5,219.5C 191.128,223.065 197.962,223.398 205,220.5C 205.5,220.667 206,220.833 206.5,221C 199.77,226.464 192.103,228.464 183.5,227C 175.803,223.099 174.47,224.933 179.5,232.5C 179.167,233.167 178.833,233.833 178.5,234.5C 183.447,243.974 191.114,247.474 201.5,245C 195.365,248.581 188.699,250.415 181.5,250.5C 184.486,258.11 187.319,265.777 190,273.5C 191.214,275.049 192.714,276.215 194.5,277C 197.553,277.179 200.553,277.679 203.5,278.5C 201.117,283.025 197.45,284.858 192.5,284C 188.554,280.613 185.72,276.446 184,271.5C 184.453,283.315 187.12,294.648 192,305.5C 194.664,309.835 197.997,310.501 202,307.5C 201.71,311.674 199.376,314.007 195,314.5C 190.316,312.811 187.316,309.477 186,304.5C 186.858,315.428 189.191,326.094 193,336.5C 194.458,338.96 196.291,341.127 198.5,343C 196.5,343.667 194.5,343.667 192.5,343C 189.203,337.661 187.203,331.828 186.5,325.5C 186.013,324.527 185.513,323.527 185,322.5C 184.179,329.679 184.345,336.679 185.5,343.5C 185.659,349.816 187.159,355.816 190,361.5C 192.695,367.938 195.028,367.938 197,361.5C 198.052,355.883 198.718,350.216 199,344.5C 200.333,342.5 201.667,340.5 203,338.5C 203.357,328.957 204.19,319.457 205.5,310C 205.352,308.293 205.018,306.626 204.5,305C 210.612,294.356 213.612,283.023 213.5,271C 217.162,264.385 217.495,257.552 214.5,250.5C 216.97,244.096 218.303,237.43 218.5,230.5C 219.167,227.833 219.833,225.167 220.5,222.5C 219.437,236.502 218.937,250.502 219,264.5C 216.122,279.011 212.456,293.344 208,307.5C 206.881,318.468 206.215,329.468 206,340.5C 203.558,343.048 201.892,346.048 201,349.5C 200.667,354.167 200.333,358.833 200,363.5C 193.53,374.983 191.363,387.316 193.5,400.5C 219.765,329.703 245.432,258.703 270.5,187.5C 271.462,183.605 272.796,179.939 274.5,176.5C 275.043,176.44 275.376,176.107 275.5,175.5C 274.311,174.571 272.978,174.238 271.5,174.5C 272.833,173.833 274.167,173.167 275.5,172.5C 277.772,171.559 279.772,170.226 281.5,168.5C 281.5,169.167 281.5,169.833 281.5,170.5C 280.542,171.962 279.376,173.295 278,174.5C 249.193,254.421 220.693,334.421 192.5,414.5C 194.144,414.714 195.644,414.38 197,413.5C 225.475,334.572 253.642,255.572 281.5,176.5C 282.404,177.209 282.737,178.209 282.5,179.5C 282.244,181.937 281.577,184.271 280.5,186.5C 283.522,189.853 286.522,193.187 289.5,196.5C 290.933,198.558 291.6,200.892 291.5,203.5C 291.5,204.5 291.5,205.5 291.5,206.5C 290.009,206.099 288.342,205.932 286.5,206C 283.296,202.964 280.296,199.797 277.5,196.5C 275.547,199.141 274.047,202.141 273,205.5C 266.066,225.468 259.233,245.468 252.5,265.5C 252.667,266.167 252.833,266.833 253,267.5C 256.145,270.734 259.478,273.734 263,276.5C 265.017,279.127 264.85,281.627 262.5,284C 261.167,284.667 259.833,284.667 258.5,284C 255.634,280.441 252.301,278.274 248.5,277.5C 241.03,298.577 233.363,319.577 225.5,340.5C 228.106,344.609 231.273,348.276 235,351.5C 235.667,353.833 235.667,356.167 235,358.5C 233.951,359.517 232.784,359.684 231.5,359C 228.961,356.63 226.628,354.13 224.5,351.5C 221.95,351.561 220.45,352.894 220,355.5C 213.924,374.063 207.257,392.396 200,410.5C 199.949,413.277 199.782,415.943 199.5,418.5C 196.897,419.562 194.23,419.728 191.5,419C 188.495,417.83 185.495,416.664 182.5,415.5C 180.734,416.091 179.067,416.924 177.5,418C 174.442,424.058 169.775,428.391 163.5,431C 154.921,432.919 151.588,429.752 153.5,421.5C 150.73,420.399 149.064,418.399 148.5,415.5C 149.828,410.68 151.828,406.18 154.5,402C 153.103,400.039 152.103,397.872 151.5,395.5C 152.845,390.968 154.678,386.635 157,382.5C 156.172,362.694 153.838,343.028 150,323.5C 149.667,316.5 149.333,309.5 149,302.5C 144.684,286.568 140.684,270.568 137,254.5C 136.293,248.143 136.46,241.81 137.5,235.5C 134.66,229.145 132.994,222.479 132.5,215.5C 132.386,212.622 133.052,209.956 134.5,207.5C 128.004,201.841 121.337,196.341 114.5,191C 109.936,186.605 105.602,182.105 101.5,177.5C 101.5,176.833 101.167,176.5 100.5,176.5C 92.0487,166.857 85.882,155.857 82,143.5C 81.1955,140.304 81.3622,137.304 82.5,134.5C 83.9063,134.027 84.573,133.027 84.5,131.5C 84.5,130.833 84.8333,130.5 85.5,130.5C 87.1667,129.5 88.5,128.167 89.5,126.5C 90.9599,124.537 92.6266,122.704 94.5,121C 91.2522,116.6 88.2522,112.1 85.5,107.5C 85.8333,106.167 86.1667,104.833 86.5,103.5C 89.6686,99.2309 93.6686,97.8976 98.5,99.5C 98.427,101.027 99.0937,102.027 100.5,102.5C 102.477,104.814 104.477,107.147 106.5,109.5C 115.328,104.92 123.995,100.087 132.5,95C 134.537,91.0395 137.537,88.2062 141.5,86.5C 144.58,86.2523 147.58,85.5856 150.5,84.5C 151.416,84.5427 152.083,84.8761 152.5,85.5 Z M 142.5,122.5 C 143.167,123.5 143.833,124.5 144.5,125.5C 145.01,130.211 145.844,134.878 147,139.5C 147.72,146.536 147.553,153.536 146.5,160.5C 143.833,161.167 141.167,161.833 138.5,162.5C 137.737,160.632 136.737,158.965 135.5,157.5C 135.573,155.973 134.906,154.973 133.5,154.5C 133.34,152.847 132.674,151.514 131.5,150.5C 131.573,148.973 130.906,147.973 129.5,147.5C 128.828,144.658 127.494,142.158 125.5,140C 128.266,138.533 130.766,136.7 133,134.5C 136.381,130.625 139.547,126.625 142.5,122.5 Z M 117.5,155.5 C 119.5,158.833 121.5,162.167 123.5,165.5C 123.5,166.167 123.5,166.833 123.5,167.5C 122.167,167.833 120.833,168.167 119.5,168.5C 118.497,165.15 117.497,161.817 116.5,158.5C 116.263,157.209 116.596,156.209 117.5,155.5 Z"/></g>
<g><path style="opacity:1" fill="#161616" d="M 160.5,85.5 C 161.239,85.369 161.906,85.5357 162.5,86C 159.967,88.4686 158.467,91.3019 158,94.5C 158.75,93.8742 159.584,93.3742 160.5,93C 163.167,92.8333 165.833,92.6667 168.5,92.5C 180.462,94.0682 192.462,94.5682 204.5,94C 205.46,92.5806 206.293,91.0806 207,89.5C 207.342,91.8183 206.842,93.985 205.5,96C 200.136,96.1705 194.802,96.6705 189.5,97.5C 190.59,98.6086 190.59,99.6086 189.5,100.5C 181.606,95.4204 175.439,97.0871 171,105.5C 170.062,110.527 170.562,115.36 172.5,120C 169.883,119.74 168.05,118.24 167,115.5C 166.179,109.352 166.679,103.352 168.5,97.5C 163.125,97.8282 157.792,97.4948 152.5,96.5C 154.931,92.6267 157.598,88.9601 160.5,85.5 Z"/></g>
<g><path style="opacity:0.997" fill="#3c3c3c" d="M 323.5,46.5 C 324.809,47.624 325.475,49.124 325.5,51C 324.397,54.194 324.397,57.3606 325.5,60.5C 331.091,61.6586 332.924,64.9919 331,70.5C 328.512,72.7433 325.846,74.7433 323,76.5C 322.505,78.4727 322.338,80.4727 322.5,82.5C 320.208,82.2436 318.041,82.5769 316,83.5C 314.555,87.1504 313.555,90.817 313,94.5C 316.329,91.7034 319.163,92.2034 321.5,96C 333.161,95.1348 336.827,99.9681 332.5,110.5C 332.685,111.584 333.018,112.584 333.5,113.5C 333.427,115.027 334.094,116.027 335.5,116.5C 334.081,117.451 332.415,117.784 330.5,117.5C 320.022,124.953 314.022,122.287 312.5,109.5C 311.261,109.058 310.261,108.391 309.5,107.5C 309.634,105.708 309.301,104.042 308.5,102.5C 309.077,100.348 310.244,100.015 312,101.5C 312.058,104.559 313.391,106.892 316,108.5C 316.333,111.5 316.667,114.5 317,117.5C 319.153,119.444 321.653,119.944 324.5,119C 326.412,116.212 329.079,114.879 332.5,115C 331.313,113.981 330.313,112.814 329.5,111.5C 333.83,101.64 330.497,97.1404 319.5,98C 317.362,94.8963 315.029,94.7297 312.5,97.5C 311.28,97.1131 310.613,96.2798 310.5,95C 312.068,90.1293 313.735,85.2959 315.5,80.5C 317.167,79.8333 318.833,79.1667 320.5,78.5C 320.069,77.7065 319.735,76.8732 319.5,76C 322.988,73.2645 325.988,70.0979 328.5,66.5C 326.823,64.2395 324.657,62.5729 322,61.5C 321.872,58.4856 321.872,55.4856 322,52.5C 321.148,53.5707 320.315,54.5707 319.5,55.5C 319.062,54.4937 318.396,54.4937 317.5,55.5C 318.501,52.8284 319.501,50.1618 320.5,47.5C 321.391,46.8902 322.391,46.5569 323.5,46.5 Z"/></g>
<g><path style="opacity:0.553" fill="#8b8b8b" d="M 98.5,99.5 C 99.9063,99.9731 100.573,100.973 100.5,102.5C 99.0937,102.027 98.427,101.027 98.5,99.5 Z"/></g>
<g><path style="opacity:1" fill="#f1f1f1" d="M 93.5,101.5 C 94.4959,101.414 95.3292,101.748 96,102.5C 112.959,130.25 129.792,158.084 146.5,186C 144.299,186.825 142.466,186.325 141,184.5C 123.833,158 106.667,131.5 89.5,105C 91.0931,104.051 92.4264,102.885 93.5,101.5 Z"/></g>
<g><path style="opacity:1" fill="#1a1a1a" d="M 322.5,102.5 C 324.527,102.338 326.527,102.505 328.5,103C 330.066,105.677 329.4,107.01 326.5,107C 324.365,106.124 323.031,104.624 322.5,102.5 Z"/></g>
<g><path style="opacity:0.765" fill="#6e6e6e" d="M 308.5,102.5 C 309.301,104.042 309.634,105.708 309.5,107.5C 307.031,108.607 306.031,110.607 306.5,113.5C 305.833,112.833 305.167,112.167 304.5,111.5C 305.594,108.318 306.928,105.318 308.5,102.5 Z"/></g>
<g><path style="opacity:0.459" fill="#a0a0a0" d="M 86.5,103.5 C 86.1667,104.833 85.8333,106.167 85.5,107.5C 84.1472,105.872 84.4805,104.538 86.5,103.5 Z"/></g>
<g><path style="opacity:1" fill="#1c1c1c" d="M 192.5,104.5 C 196.304,108.512 196.471,112.845 193,117.5C 191.364,119.898 189.198,121.065 186.5,121C 191.749,116.758 193.749,111.258 192.5,104.5 Z"/></g>
<g><path style="opacity:1" fill="#1b1b1b" d="M 320.5,109.5 C 324.074,110.034 325.407,111.867 324.5,115C 323.216,115.684 322.049,115.517 321,114.5C 320.506,112.866 320.34,111.199 320.5,109.5 Z"/></g>
<g><path style="opacity:0.435" fill="#999999" d="M 333.5,113.5 C 334.906,113.973 335.573,114.973 335.5,116.5C 334.094,116.027 333.427,115.027 333.5,113.5 Z"/></g>
<g><path style="opacity:1" fill="#eeeeee" d="M 138.5,115.5 C 139.5,115.5 140.5,115.5 141.5,115.5C 141.046,118.14 139.879,120.473 138,122.5C 133.817,126.382 129.984,130.549 126.5,135C 121.953,137.124 120.453,135.624 122,130.5C 127.097,124.895 132.597,119.895 138.5,115.5 Z"/></g>
<g><path style="opacity:0.999" fill="#2b2b2b" d="M 317.5,55.5 C 318.396,54.4937 319.062,54.4937 319.5,55.5C 319.778,57.3464 319.111,58.6798 317.5,59.5C 314.624,56.9199 311.79,56.9199 309,59.5C 308.356,63.1405 308.856,66.6405 310.5,70C 307.339,74.0089 308.005,77.1756 312.5,79.5C 310.59,84.3174 308.424,88.9841 306,93.5C 302.654,92.4797 301.82,90.4797 303.5,87.5C 303.132,86.09 302.299,85.09 301,84.5C 299.583,72.0155 293.916,69.3488 284,76.5C 282.331,75.8338 280.831,75.8338 279.5,76.5C 281.36,77.9387 283.027,79.6053 284.5,81.5C 281.872,85.299 281.872,89.1323 284.5,93C 289.422,93.8107 294.255,94.9774 299,96.5C 301.092,94.0935 303.092,94.0935 305,96.5C 303.763,101.4 302.597,106.4 301.5,111.5C 299.473,111.338 297.473,111.505 295.5,112C 294.91,113.509 294.244,115.009 293.5,116.5C 286.806,119.005 284.306,123.672 286,130.5C 287.584,131.861 289.418,132.528 291.5,132.5C 290.984,135.899 290.15,139.232 289,142.5C 283.718,144.017 283.218,146.517 287.5,150C 286.552,150.483 285.552,150.649 284.5,150.5C 283.492,155.712 285.492,157.878 290.5,157C 292.304,149.596 293.97,142.096 295.5,134.5C 298.759,135.529 302.259,135.529 306,134.5C 306.209,128.765 306.375,123.099 306.5,117.5C 305.349,115.675 304.682,113.675 304.5,111.5C 305.167,112.167 305.833,112.833 306.5,113.5C 307.117,113.611 307.617,113.944 308,114.5C 308.345,119.267 309.179,123.934 310.5,128.5C 309.561,136.101 305.228,139.768 297.5,139.5C 296.896,143.303 296.23,146.969 295.5,150.5C 294.853,151.274 294.52,152.274 294.5,153.5C 294.64,155.03 295.307,156.03 296.5,156.5C 297.525,156.897 297.692,157.563 297,158.5C 293.703,160.795 290.703,163.462 288,166.5C 286.115,170.923 284.281,175.256 282.5,179.5C 282.737,178.209 282.404,177.209 281.5,176.5C 281.961,174.45 282.628,172.45 283.5,170.5C 283.03,169.537 282.363,169.537 281.5,170.5C 281.5,169.833 281.5,169.167 281.5,168.5C 282.117,166.771 283.117,165.271 284.5,164C 287.661,162.587 290.661,160.92 293.5,159C 288.804,157.962 284.471,158.795 280.5,161.5C 279.571,160.311 279.238,158.978 279.5,157.5C 280.5,157.5 281.5,157.5 282.5,157.5C 282.5,156.5 282.5,155.5 282.5,154.5C 280.708,154.366 279.042,154.699 277.5,155.5C 277.672,154.508 277.338,153.842 276.5,153.5C 276.842,152.662 277.508,152.328 278.5,152.5C 279.239,152.631 279.906,152.464 280.5,152C 279.663,150.989 279.33,149.822 279.5,148.5C 280.185,146.586 280.685,144.586 281,142.5C 283.725,141.063 285.892,139.063 287.5,136.5C 282.08,133.075 280.58,128.409 283,122.5C 284.953,118.88 287.619,115.88 291,113.5C 291.753,109.284 294.253,106.951 298.5,106.5C 299.305,104.085 300.305,101.751 301.5,99.5C 295.611,97.2365 289.278,95.9031 282.5,95.5C 278.676,91.3951 278.009,86.8951 280.5,82C 278.768,80.0281 277.435,77.8614 276.5,75.5C 277.918,73.6921 279.918,73.0254 282.5,73.5C 285.993,69.7061 290.326,68.5394 295.5,70C 297.324,70.66 298.657,71.8267 299.5,73.5C 299.427,75.0269 300.094,76.0269 301.5,76.5C 301.5,77.1667 301.5,77.8333 301.5,78.5C 301.077,80.7812 301.744,82.4479 303.5,83.5C 304.167,83.5 304.5,83.8333 304.5,84.5C 304.34,86.1992 304.506,87.8659 305,89.5C 306.039,88.7562 306.539,87.7562 306.5,86.5C 306.665,84.1732 307.331,82.0065 308.5,80C 305.571,77.0899 304.905,73.7566 306.5,70C 300.554,57.5945 304.221,52.7612 317.5,55.5 Z"/></g>
<g><path style="opacity:0.294" fill="#b0b0b0" d="M 304.5,84.5 C 305.167,85.1667 305.833,85.8333 306.5,86.5C 306.539,87.7562 306.039,88.7562 305,89.5C 304.506,87.8659 304.34,86.1992 304.5,84.5 Z"/></g>
<g><path style="opacity:1" fill="#1d1d1d" d="M 286.5,85.5 C 289.14,85.954 291.473,87.1207 293.5,89C 288.939,91.7973 286.606,90.6306 286.5,85.5 Z"/></g>
<g><path style="opacity:0.106" fill="#e8e8e8" d="M 301.5,78.5 C 302.309,80.0276 302.976,81.6943 303.5,83.5C 301.744,82.4479 301.077,80.7812 301.5,78.5 Z"/></g>
<g><path style="opacity:1" fill="#161616" d="M 290.5,77.5 C 295.068,77.0826 296.568,79.0826 295,83.5C 292.126,82.4678 290.626,80.4678 290.5,77.5 Z"/></g>
<g><path style="opacity:0.275" fill="#aaaaaa" d="M 299.5,73.5 C 300.906,73.9731 301.573,74.9731 301.5,76.5C 300.094,76.0269 299.427,75.0269 299.5,73.5 Z"/></g>
<g><path style="opacity:0.596" fill="#a3a3a3" d="M 335.5,116.5 C 336.043,116.56 336.376,116.893 336.5,117.5C 334.364,118.793 332.364,118.793 330.5,117.5C 332.415,117.784 334.081,117.451 335.5,116.5 Z"/></g>
<g><path style="opacity:1" fill="#0f0f0f" d="M 293.5,120.5 C 294.675,120.281 295.675,120.614 296.5,121.5C 296.047,123.565 295.047,125.232 293.5,126.5C 291.001,124.604 291.001,122.604 293.5,120.5 Z"/></g>
<g><path style="opacity:1" fill="#191919" d="M 301.5,121.5 C 303.722,121.559 304.722,122.725 304.5,125C 304.576,127.756 303.243,128.923 300.5,128.5C 300.674,126.139 301.007,123.806 301.5,121.5 Z"/></g>
<g><path style="opacity:0.208" fill="#aeaeae" d="M 142.5,122.5 C 142.56,121.957 142.893,121.624 143.5,121.5C 144.429,122.689 144.762,124.022 144.5,125.5C 143.833,124.5 143.167,123.5 142.5,122.5 Z"/></g>
<g><path style="opacity:1" fill="#f5f5f5" d="M 216.5,124.5 C 217.675,124.281 218.675,124.614 219.5,125.5C 223.779,131.282 228.612,136.615 234,141.5C 235.135,144.901 233.968,146.901 230.5,147.5C 225.44,146.778 222.607,143.778 222,138.5C 220,135.833 218,133.167 216,130.5C 215.322,128.402 215.489,126.402 216.5,124.5 Z"/></g>
<g><path style="opacity:0.608" fill="#8f8f8f" d="M 89.5,126.5 C 88.5,128.167 87.1667,129.5 85.5,130.5C 85.8333,128.167 87.1667,126.833 89.5,126.5 Z"/></g>
<g><path style="opacity:1" fill="#f6f6f6" d="M 94.5,127.5 C 95.8734,127.343 97.2068,127.51 98.5,128C 99.8333,130 101.167,132 102.5,134C 96.1999,134.443 96.1999,135.776 102.5,138C 103.88,139.925 105.38,141.759 107,143.5C 112.619,157.698 118.619,171.698 125,185.5C 126.558,187.359 128.391,188.859 130.5,190C 136.179,190.198 141.845,190.198 147.5,190C 151.167,191.667 154.833,193.333 158.5,195C 153.167,195.667 147.833,196.333 142.5,197C 145.34,199.347 147.673,202.18 149.5,205.5C 141.122,206.184 133.456,204.018 126.5,199C 109.844,184.026 96.6774,166.526 87,146.5C 86.1491,138.865 88.6491,132.532 94.5,127.5 Z"/></g>
<g><path style="opacity:0.471" fill="#8d8d8d" d="M 84.5,131.5 C 84.573,133.027 83.9063,134.027 82.5,134.5C 82.427,132.973 83.0937,131.973 84.5,131.5 Z"/></g>
<g><path style="opacity:0.604" fill="#a3a3a3" d="M 250.5,137.5 C 251.906,137.973 252.573,138.973 252.5,140.5C 251.094,140.027 250.427,139.027 250.5,137.5 Z"/></g>
<g><path style="opacity:1" fill="#f5f5f5" d="M 277.5,155.5 C 279.042,154.699 280.708,154.366 282.5,154.5C 282.5,155.5 282.5,156.5 282.5,157.5C 281.5,157.5 280.5,157.5 279.5,157.5C 279.238,158.978 279.571,160.311 280.5,161.5C 284.471,158.795 288.804,157.962 293.5,159C 290.661,160.92 287.661,162.587 284.5,164C 283.117,165.271 282.117,166.771 281.5,168.5C 279.772,170.226 277.772,171.559 275.5,172.5C 262.092,170.282 250.592,164.282 241,154.5C 240.571,149.201 242.571,144.868 247,141.5C 253.46,149.629 260.294,157.463 267.5,165C 269.298,166.505 271.132,166.672 273,165.5C 273.705,161.725 275.205,158.391 277.5,155.5 Z"/></g>
<g><path style="opacity:0.392" fill="#ababab" d="M 222.5,146.5 C 224.027,146.427 225.027,147.094 225.5,148.5C 223.973,148.573 222.973,147.906 222.5,146.5 Z"/></g>
<g><path style="opacity:0.349" fill="#a3a3a3" d="M 129.5,147.5 C 130.906,147.973 131.573,148.973 131.5,150.5C 130.094,150.027 129.427,149.027 129.5,147.5 Z"/></g>
<g><path style="opacity:0.11" fill="#c5c5c5" d="M 279.5,148.5 C 279.33,149.822 279.663,150.989 280.5,152C 279.906,152.464 279.239,152.631 278.5,152.5C 278.232,150.901 278.566,149.568 279.5,148.5 Z"/></g>
<g><path style="opacity:0.369" fill="#a5a5a5" d="M 295.5,150.5 C 295.325,152.621 295.659,154.621 296.5,156.5C 295.307,156.03 294.64,155.03 294.5,153.5C 294.52,152.274 294.853,151.274 295.5,150.5 Z"/></g>
<g><path style="opacity:0.651" fill="#949494" d="M 276.5,153.5 C 275.5,155.167 274.167,156.5 272.5,157.5C 272.833,155.167 274.167,153.833 276.5,153.5 Z"/></g>
<g><path style="opacity:0.38" fill="#9c9c9c" d="M 133.5,154.5 C 134.906,154.973 135.573,155.973 135.5,157.5C 134.094,157.027 133.427,156.027 133.5,154.5 Z"/></g>
<g><path style="opacity:0.671" fill="#939393" d="M 115.5,154.5 C 116.492,154.328 117.158,154.662 117.5,155.5C 116.596,156.209 116.263,157.209 116.5,158.5C 115.566,157.432 115.232,156.099 115.5,154.5 Z"/></g>
<g><path style="opacity:0.388" fill="#dc918c" d="M 210.5,160.5 C 211.995,160.989 213.329,161.655 214.5,162.5C 213.5,162.5 212.5,162.5 211.5,162.5C 210.662,162.158 210.328,161.492 210.5,160.5 Z"/></g>
<g><path style="opacity:1" fill="#dd3427" d="M 146.5,160.5 C 146.388,164.396 145.388,168.063 143.5,171.5C 141.555,168.607 139.889,165.607 138.5,162.5C 141.167,161.833 143.833,161.167 146.5,160.5 Z"/></g>
<g><path style="opacity:1" fill="#e41916" d="M 211.5,162.5 C 212.5,162.5 213.5,162.5 214.5,162.5C 234.973,166.983 253.64,175.316 270.5,187.5C 245.432,258.703 219.765,329.703 193.5,400.5C 191.363,387.316 193.53,374.983 200,363.5C 200.333,358.833 200.667,354.167 201,349.5C 201.892,346.048 203.558,343.048 206,340.5C 206.215,329.468 206.881,318.468 208,307.5C 212.456,293.344 216.122,279.011 219,264.5C 218.937,250.502 219.437,236.502 220.5,222.5C 220.579,221.07 220.246,219.736 219.5,218.5C 220.884,215.666 221.551,212.666 221.5,209.5C 220.27,204.407 219.27,199.24 218.5,194C 220.03,188.927 220.53,183.76 220,178.5C 217.339,173.024 214.506,167.691 211.5,162.5 Z"/></g>
<g><path style="opacity:0.416" fill="#9f9f9f" d="M 246.5,163.5 C 248.027,163.427 249.027,164.094 249.5,165.5C 247.973,165.573 246.973,164.906 246.5,163.5 Z"/></g>
<g><path style="opacity:0.01" fill="#f5e5e5" d="M 123.5,165.5 C 124.5,165.833 125.167,166.5 125.5,167.5C 124.833,167.5 124.167,167.5 123.5,167.5C 123.5,166.833 123.5,166.167 123.5,165.5 Z"/></g>
<g><path style="opacity:1" fill="#de1a16" d="M 123.5,167.5 C 124.167,167.5 124.833,167.5 125.5,167.5C 129.686,174.021 134.019,180.521 138.5,187C 133.446,188.579 129.279,187.079 126,182.5C 123.012,178.192 120.845,173.525 119.5,168.5C 120.833,168.167 122.167,167.833 123.5,167.5 Z"/></g>
<g><path style="opacity:1" fill="#eeeeee" d="M 281.5,176.5 C 253.642,255.572 225.475,334.572 197,413.5C 195.644,414.38 194.144,414.714 192.5,414.5C 220.693,334.421 249.193,254.421 278,174.5C 279.376,173.295 280.542,171.962 281.5,170.5C 282.363,169.537 283.03,169.537 283.5,170.5C 282.628,172.45 281.961,174.45 281.5,176.5 Z"/></g>
<g><path style="opacity:0.267" fill="#b3b3b3" d="M 270.5,174.5 C 270.833,174.5 271.167,174.5 271.5,174.5C 272.978,174.238 274.311,174.571 275.5,175.5C 275.376,176.107 275.043,176.44 274.5,176.5C 273.167,175.833 271.833,175.167 270.5,174.5 Z"/></g>
<g><path style="opacity:0.82" fill="#f9958c" d="M 100.5,176.5 C 101.167,176.5 101.5,176.833 101.5,177.5C 101.027,178.906 100.027,179.573 98.5,179.5C 99.1667,178.5 99.8333,177.5 100.5,176.5 Z"/></g>
<g><path style="opacity:1" fill="#e61a16" d="M 101.5,177.5 C 105.602,182.105 109.936,186.605 114.5,191C 121.337,196.341 128.004,201.841 134.5,207.5C 133.052,209.956 132.386,212.622 132.5,215.5C 132.994,222.479 134.66,229.145 137.5,235.5C 136.46,241.81 136.293,248.143 137,254.5C 140.684,270.568 144.684,286.568 149,302.5C 149.333,309.5 149.667,316.5 150,323.5C 153.838,343.028 156.172,362.694 157,382.5C 154.678,386.635 152.845,390.968 151.5,395.5C 152.103,397.872 153.103,400.039 154.5,402C 151.828,406.18 149.828,410.68 148.5,415.5C 149.064,418.399 150.73,420.399 153.5,421.5C 151.588,429.752 154.921,432.919 163.5,431C 169.775,428.391 174.442,424.058 177.5,418C 179.067,416.924 180.734,416.091 182.5,415.5C 185.495,416.664 188.495,417.83 191.5,419C 194.23,419.728 196.897,419.562 199.5,418.5C 199.782,415.943 199.949,413.277 200,410.5C 207.257,392.396 213.924,374.063 220,355.5C 220.45,352.894 221.95,351.561 224.5,351.5C 226.628,354.13 228.961,356.63 231.5,359C 232.784,359.684 233.951,359.517 235,358.5C 235.667,356.167 235.667,353.833 235,351.5C 231.273,348.276 228.106,344.609 225.5,340.5C 233.363,319.577 241.03,298.577 248.5,277.5C 252.301,278.274 255.634,280.441 258.5,284C 259.833,284.667 261.167,284.667 262.5,284C 264.85,281.627 265.017,279.127 263,276.5C 259.478,273.734 256.145,270.734 253,267.5C 252.833,266.833 252.667,266.167 252.5,265.5C 259.233,245.468 266.066,225.468 273,205.5C 274.047,202.141 275.547,199.141 277.5,196.5C 280.296,199.797 283.296,202.964 286.5,206C 288.342,205.932 290.009,206.099 291.5,206.5C 293.167,207.5 294.5,208.833 295.5,210.5C 295.427,212.027 296.094,213.027 297.5,213.5C 298.833,214.167 299.833,215.167 300.5,216.5C 300.427,218.027 301.094,219.027 302.5,219.5C 306.237,223.302 309.237,227.635 311.5,232.5C 311.427,234.027 312.094,235.027 313.5,235.5C 318.811,243.124 322.811,251.457 325.5,260.5C 325.12,262.698 325.787,264.365 327.5,265.5C 327.5,265.833 327.5,266.167 327.5,266.5C 327.41,269.152 328.076,271.485 329.5,273.5C 344.607,336.569 328.607,390.403 281.5,435C 239.877,468.99 192.877,480.156 140.5,468.5C 138.485,467.076 136.152,466.41 133.5,466.5C 131.485,465.076 129.152,464.41 126.5,464.5C 115.678,461.42 105.678,456.753 96.5,450.5C 96.0269,449.094 95.0269,448.427 93.5,448.5C 93.0269,447.094 92.0269,446.427 90.5,446.5C 90.0269,445.094 89.0269,444.427 87.5,444.5C 85.5956,444.262 84.2623,443.262 83.5,441.5C 83.0269,440.094 82.0269,439.427 80.5,439.5C 76.8797,437.547 73.8797,434.881 71.5,431.5C 70.0892,429.086 68.0892,427.419 65.5,426.5C 65.5,424.5 64.5,423.5 62.5,423.5C 57.779,419.047 53.779,414.047 50.5,408.5C 50.4456,406.368 49.4456,405.035 47.5,404.5C 46.5987,403.71 45.9321,402.71 45.5,401.5C 45.7148,399.821 45.0481,398.821 43.5,398.5C 20.324,359.933 14.324,318.933 25.5,275.5C 26.9238,273.485 27.5905,271.152 27.5,268.5C 30.5805,256.236 35.5805,244.903 42.5,234.5C 43.9063,234.027 44.573,233.027 44.5,231.5C 45.9063,231.027 46.573,230.027 46.5,228.5C 47.9063,228.027 48.573,227.027 48.5,225.5C 48.7376,223.596 49.7376,222.262 51.5,221.5C 52.9063,221.027 53.573,220.027 53.5,218.5C 55.4528,214.88 58.1195,211.88 61.5,209.5C 65.1667,206.5 68.5,203.167 71.5,199.5C 71.5,198.833 71.8333,198.5 72.5,198.5C 75.4274,197.243 77.7607,195.243 79.5,192.5C 85.0047,187.002 91.3381,182.669 98.5,179.5C 100.027,179.573 101.027,178.906 101.5,177.5 Z"/></g>
<g><path style="opacity:1" fill="#111111" d="M 209.5,185.5 C 210.999,187.164 211.999,189.164 212.5,191.5C 212.547,193 211.881,194 210.5,194.5C 209.516,191.572 209.183,188.572 209.5,185.5 Z"/></g>
<g><path style="opacity:0.859" fill="#575757" d="M 56.5,192.5 C 56.5,191.167 55.8333,190.5 54.5,190.5C 55.7079,187.956 57.7079,186.622 60.5,186.5C 60.3775,189.292 59.0442,191.292 56.5,192.5 Z"/></g>
<g><path style="opacity:1" fill="#eeeeee" d="M 277.5,196.5 C 277.336,193.813 277.503,191.146 278,188.5C 282.349,192.682 286.515,197.015 290.5,201.5C 289.307,203.384 287.641,203.884 285.5,203C 283.229,200.218 280.563,198.051 277.5,196.5 Z"/></g>
<g><path style="opacity:1" fill="#1e1e1e" d="M 306.5,193.5 C 307.08,195.749 308.413,197.415 310.5,198.5C 311.833,199.167 312.833,200.167 313.5,201.5C 313.427,203.027 314.094,204.027 315.5,204.5C 316.5,204.833 317.167,205.5 317.5,206.5C 317.427,208.027 318.094,209.027 319.5,209.5C 320.974,210.436 321.974,211.77 322.5,213.5C 322.427,215.027 323.094,216.027 324.5,216.5C 324.427,218.027 325.094,219.027 326.5,219.5C 334.338,230.844 340.338,243.178 344.5,256.5C 344.41,259.152 345.076,261.485 346.5,263.5C 346.41,266.152 347.076,268.485 348.5,270.5C 363.889,339.834 345.556,398.667 293.5,447C 239.469,489.869 179.802,499.869 114.5,477C 98.9918,471.091 84.9918,462.924 72.5,452.5C 72.0269,451.094 71.0269,450.427 69.5,450.5C 68.1667,449.833 67.1667,448.833 66.5,447.5C 66.0269,446.094 65.0269,445.427 63.5,445.5C 16.3138,402.124 -2.85283,348.458 6,284.5C 6.74091,279.598 7.90758,274.932 9.5,270.5C 10.9238,268.485 11.5905,266.152 11.5,263.5C 12.9238,261.485 13.5905,259.152 13.5,256.5C 17.6622,243.178 23.6622,230.844 31.5,219.5C 32.9063,219.027 33.573,218.027 33.5,216.5C 34.9063,216.027 35.573,215.027 35.5,213.5C 36.0256,211.77 37.0256,210.436 38.5,209.5C 39.9063,209.027 40.573,208.027 40.5,206.5C 40.8333,205.5 41.5,204.833 42.5,204.5C 43.9063,204.027 44.573,203.027 44.5,201.5C 45.5,199.833 46.8333,198.5 48.5,197.5C 49.9063,197.027 50.573,196.027 50.5,194.5C 51.5,192.833 52.8333,191.5 54.5,190.5C 55.8333,190.5 56.5,191.167 56.5,192.5C 10.0693,246.744 -0.430722,307.411 25,374.5C 28.5266,381.553 32.0266,388.553 35.5,395.5C 35.427,397.027 36.0937,398.027 37.5,398.5C 37.427,400.027 38.0937,401.027 39.5,401.5C 39.427,403.027 40.0937,404.027 41.5,404.5C 43.0627,405.945 44.396,407.611 45.5,409.5C 45.427,411.027 46.0937,412.027 47.5,412.5C 48.5,412.833 49.1667,413.5 49.5,414.5C 49.427,416.027 50.0937,417.027 51.5,417.5C 103.478,471.829 165.478,487.662 237.5,465C 256.841,457.125 274.508,446.625 290.5,433.5C 294.5,431.5 297.5,428.5 299.5,424.5C 301.5,421.833 303.833,419.5 306.5,417.5C 307.906,417.027 308.573,416.027 308.5,414.5C 310.817,410.854 313.484,407.52 316.5,404.5C 317.906,404.027 318.573,403.027 318.5,401.5C 319.906,401.027 320.573,400.027 320.5,398.5C 321.906,398.027 322.573,397.027 322.5,395.5C 350.889,344.754 354.056,292.42 332,238.5C 323.396,220.236 312.062,203.903 298,189.5C 297.517,188.552 297.351,187.552 297.5,186.5C 301.332,187.655 304.332,189.988 306.5,193.5 Z"/></g>
<g><path style="opacity:1" fill="#1d1d1d" d="M 201.5,191.5 C 204.157,192.479 204.823,194.146 203.5,196.5C 201.783,195.332 201.116,193.665 201.5,191.5 Z"/></g>
<g><path style="opacity:0.761" fill="#989898" d="M 306.5,193.5 C 308.587,194.585 309.92,196.251 310.5,198.5C 308.413,197.415 307.08,195.749 306.5,193.5 Z"/></g>
<g><path style="opacity:0.694" fill="#929292" d="M 50.5,194.5 C 50.573,196.027 49.9063,197.027 48.5,197.5C 48.427,195.973 49.0937,194.973 50.5,194.5 Z"/></g>
<g><path style="opacity:0.91" fill="#f67668" d="M 79.5,192.5 C 77.7607,195.243 75.4274,197.243 72.5,198.5C 74.2393,195.757 76.5726,193.757 79.5,192.5 Z"/></g>
<g><path style="opacity:0.663" fill="#999999" d="M 289.5,196.5 C 292.449,198.265 293.115,200.598 291.5,203.5C 291.6,200.892 290.933,198.558 289.5,196.5 Z"/></g>
<g><path style="opacity:1" fill="#e4e4e4" d="M 149.5,197.5 C 152.643,198.134 155.143,199.8 157,202.5C 158.709,205.418 160.542,208.252 162.5,211C 161.478,213.316 159.978,213.816 158,212.5C 154.911,207.594 152.077,202.594 149.5,197.5 Z"/></g>
<g><path style="opacity:0.749" fill="#8c8c8c" d="M 44.5,201.5 C 44.573,203.027 43.9063,204.027 42.5,204.5C 42.427,202.973 43.0937,201.973 44.5,201.5 Z"/></g>
<g><path style="opacity:0.722" fill="#fa968f" d="M 71.5,199.5 C 68.5,203.167 65.1667,206.5 61.5,209.5C 63.8333,205.167 67.1667,201.833 71.5,199.5 Z"/></g>
<g><path style="opacity:0.753" fill="#8b8b8b" d="M 313.5,201.5 C 314.906,201.973 315.573,202.973 315.5,204.5C 314.094,204.027 313.427,203.027 313.5,201.5 Z"/></g>
<g><path style="opacity:1" fill="#f4f4f4" d="M 165.5,202.5 C 169.16,203.193 172.827,204.026 176.5,205C 181.144,213.814 178.811,215.814 169.5,211C 166.679,208.859 165.346,206.025 165.5,202.5 Z"/></g>
<g><path style="opacity:0.463" fill="#9e9e9e" d="M 40.5,206.5 C 40.573,208.027 39.9063,209.027 38.5,209.5C 38.427,207.973 39.0937,206.973 40.5,206.5 Z"/></g>
<g><path style="opacity:0.475" fill="#9b9b9b" d="M 317.5,206.5 C 318.906,206.973 319.573,207.973 319.5,209.5C 318.094,209.027 317.427,208.027 317.5,206.5 Z"/></g>
<g><path style="opacity:0.729" fill="#fb9d96" d="M 295.5,210.5 C 296.906,210.973 297.573,211.973 297.5,213.5C 296.094,213.027 295.427,212.027 295.5,210.5 Z"/></g>
<g><path style="opacity:0.443" fill="#9a9a9a" d="M 35.5,213.5 C 35.573,215.027 34.9063,216.027 33.5,216.5C 33.427,214.973 34.0937,213.973 35.5,213.5 Z"/></g>
<g><path style="opacity:0.451" fill="#999999" d="M 322.5,213.5 C 323.906,213.973 324.573,214.973 324.5,216.5C 323.094,216.027 322.427,215.027 322.5,213.5 Z"/></g>
<g><path style="opacity:1" fill="#f9f9f9" d="M 170.5,307.5 C 170.231,309.429 170.731,311.095 172,312.5C 172.499,307.511 172.666,302.511 172.5,297.5C 173.544,280.85 174.377,264.183 175,247.5C 175.333,248.5 175.667,249.5 176,250.5C 176.561,266.005 176.394,281.505 175.5,297C 175.716,307.202 176.382,317.369 177.5,327.5C 177.806,330.385 177.473,333.052 176.5,335.5C 176.192,331.405 175.359,327.405 174,323.5C 173.679,329.111 172.346,334.445 170,339.5C 166.728,343.758 162.562,345.091 157.5,343.5C 155.262,333.262 154.095,322.929 154,312.5C 157.275,311.114 160.109,309.114 162.5,306.5C 162.333,306.167 162.167,305.833 162,305.5C 159.421,307.347 156.588,307.847 153.5,307C 151.958,302.323 150.958,297.489 150.5,292.5C 145.955,279.032 142.122,265.365 139,251.5C 138.398,245.651 138.565,239.818 139.5,234C 138.419,229.194 137.919,224.36 138,219.5C 138.333,218.833 138.667,218.167 139,217.5C 139.16,221.287 139.826,224.954 141,228.5C 143.07,218.768 148.903,215.268 158.5,218C 161.603,219.281 164.269,221.114 166.5,223.5C 166.333,223.833 166.167,224.167 166,224.5C 161.778,220.948 156.945,219.781 151.5,221C 162.999,222.837 169.499,229.67 171,241.5C 171.971,247.793 172.471,254.126 172.5,260.5C 171.542,276.157 170.876,291.824 170.5,307.5 Z"/></g>
<g><path style="opacity:0.733" fill="#fba09a" d="M 300.5,216.5 C 301.906,216.973 302.573,217.973 302.5,219.5C 301.094,219.027 300.427,218.027 300.5,216.5 Z"/></g>
<g><path style="opacity:0.42" fill="#9c9c9c" d="M 33.5,216.5 C 33.573,218.027 32.9063,219.027 31.5,219.5C 31.427,217.973 32.0937,216.973 33.5,216.5 Z"/></g>
<g><path style="opacity:0.431" fill="#9a9a9a" d="M 324.5,216.5 C 325.906,216.973 326.573,217.973 326.5,219.5C 325.094,219.027 324.427,218.027 324.5,216.5 Z"/></g>
<g><path style="opacity:0.784" fill="#fb9790" d="M 53.5,218.5 C 53.573,220.027 52.9063,221.027 51.5,221.5C 51.427,219.973 52.0937,218.973 53.5,218.5 Z"/></g>
<g><path style="opacity:0.541" fill="#f89791" d="M 48.5,225.5 C 48.573,227.027 47.9063,228.027 46.5,228.5C 46.427,226.973 47.0937,225.973 48.5,225.5 Z"/></g>
<g><path style="opacity:0.502" fill="#f99b96" d="M 46.5,228.5 C 46.573,230.027 45.9063,231.027 44.5,231.5C 44.427,229.973 45.0937,228.973 46.5,228.5 Z"/></g>
<g><path style="opacity:0.369" fill="#fbafab" d="M 44.5,231.5 C 44.573,233.027 43.9063,234.027 42.5,234.5C 42.427,232.973 43.0937,231.973 44.5,231.5 Z"/></g>
<g><path style="opacity:0.447" fill="#f9a19a" d="M 311.5,232.5 C 312.906,232.973 313.573,233.973 313.5,235.5C 312.094,235.027 311.427,234.027 311.5,232.5 Z"/></g>
<g><path style="opacity:0.886" fill="#777777" d="M 13.5,256.5 C 13.5905,259.152 12.9238,261.485 11.5,263.5C 11.4095,260.848 12.0762,258.515 13.5,256.5 Z"/></g>
<g><path style="opacity:0.894" fill="#757575" d="M 344.5,256.5 C 345.924,258.515 346.59,260.848 346.5,263.5C 345.076,261.485 344.41,259.152 344.5,256.5 Z"/></g>
<g><path style="opacity:0.925" fill="#fb9286" d="M 325.5,260.5 C 326.537,261.93 327.204,263.597 327.5,265.5C 325.787,264.365 325.12,262.698 325.5,260.5 Z"/></g>
<g><path style="opacity:0.78" fill="#676767" d="M 11.5,263.5 C 11.5905,266.152 10.9238,268.485 9.5,270.5C 9.40953,267.848 10.0762,265.515 11.5,263.5 Z"/></g>
<g><path style="opacity:1" fill="#e5e5e5" d="M 249.5,268.5 C 254.349,270.836 258.516,274.169 262,278.5C 262.925,281.134 262.091,282.301 259.5,282C 256.051,279.518 252.884,276.685 250,273.5C 249.506,271.866 249.34,270.199 249.5,268.5 Z"/></g>
<g><path style="opacity:0.886" fill="#f98d84" d="M 327.5,266.5 C 328.924,268.515 329.59,270.848 329.5,273.5C 328.076,271.485 327.41,269.152 327.5,266.5 Z"/></g>
<g><path style="opacity:0.784" fill="#666666" d="M 346.5,263.5 C 347.924,265.515 348.59,267.848 348.5,270.5C 347.076,268.485 346.41,266.152 346.5,263.5 Z"/></g>
<g><path style="opacity:0.961" fill="#f67c70" d="M 27.5,268.5 C 27.5905,271.152 26.9238,273.485 25.5,275.5C 25.4095,272.848 26.0762,270.515 27.5,268.5 Z"/></g>
<g><path style="opacity:1" fill="#aaaaaa" d="M 172.5,297.5 C 172.666,302.511 172.499,307.511 172,312.5C 170.731,311.095 170.231,309.429 170.5,307.5C 171.167,304.167 171.833,300.833 172.5,297.5 Z"/></g>
<g><path style="opacity:1" fill="#b4b4b4" d="M 177.5,327.5 C 178.323,330.977 178.823,334.644 179,338.5C 179.667,351.833 179.667,365.167 179,378.5C 178.936,364.088 178.103,349.755 176.5,335.5C 177.473,333.052 177.806,330.385 177.5,327.5 Z"/></g>
<g><path style="opacity:1" fill="#888888" d="M 186.5,325.5 C 185.51,331.31 185.177,337.31 185.5,343.5C 184.345,336.679 184.179,329.679 185,322.5C 185.513,323.527 186.013,324.527 186.5,325.5 Z"/></g>
<g><path style="opacity:1" fill="#f6f6f6" d="M 174.5,342.5 C 176.341,348.591 176.841,354.924 176,361.5C 174.617,368.468 173.45,375.468 172.5,382.5C 169.711,384.298 166.711,384.798 163.5,384C 162.874,383.25 162.374,382.416 162,381.5C 160.089,370.548 158.589,359.548 157.5,348.5C 159.5,348.5 161.5,348.5 163.5,348.5C 165.583,364.321 166.917,363.988 167.5,347.5C 170.43,346.547 172.763,344.88 174.5,342.5 Z"/></g>
<g><path style="opacity:1" fill="#eeeeee" d="M 224.5,351.5 C 223.854,349.844 223.187,348.177 222.5,346.5C 222.527,344.296 223.527,343.462 225.5,344C 228.333,346.833 231.167,349.667 234,352.5C 234.774,354.403 234.44,356.07 233,357.5C 230.269,355.255 227.436,353.255 224.5,351.5 Z"/></g>
<g><path style="opacity:1" fill="#f3f3f3" d="M 184.5,360.5 C 186.583,362.424 188.583,364.591 190.5,367C 192.167,367.333 193.833,367.667 195.5,368C 192.627,376.251 190.627,384.751 189.5,393.5C 188.178,393.67 187.011,393.337 186,392.5C 181.848,382.03 181.348,371.363 184.5,360.5 Z"/></g>
<g><path style="opacity:1" fill="#e5e5e5" d="M 159.5,382.5 C 161.531,388.429 160.364,393.762 156,398.5C 154.627,396.305 154.294,393.971 155,391.5C 156.513,388.473 158.013,385.473 159.5,382.5 Z"/></g>
<g><path style="opacity:1" fill="#e3e3e3" d="M 172.5,384.5 C 173.043,384.56 173.376,384.893 173.5,385.5C 171.183,389.09 167.849,390.423 163.5,389.5C 163.5,388.5 163.5,387.5 163.5,386.5C 166.877,386.932 169.877,386.265 172.5,384.5 Z"/></g>
<g><path style="opacity:1" fill="#ebebeb" d="M 179.5,386.5 C 180.848,389.985 182.848,393.152 185.5,396C 187.135,396.54 188.468,396.04 189.5,394.5C 190.958,399.824 190.625,404.99 188.5,410C 186.299,410.825 184.466,410.325 183,408.5C 181.187,401.254 180.021,393.921 179.5,386.5 Z"/></g>
<g><path style="opacity:1" fill="#f1f1f1" d="M 172.5,392.5 C 173.947,393.134 174.613,394.301 174.5,396C 174.294,397.865 173.628,399.532 172.5,401C 172.667,401.5 172.833,402 173,402.5C 174.333,401.167 175.667,401.167 177,402.5C 177.667,404.833 177.667,407.167 177,409.5C 173.197,412.626 171.197,416.626 171,421.5C 167.139,426.017 162.305,428.184 156.5,428C 155.424,426.274 155.257,424.441 156,422.5C 159.502,412.003 162.169,401.336 164,390.5C 166.916,392.013 169.582,391.68 172,389.5C 172.483,390.448 172.649,391.448 172.5,392.5 Z"/></g>
<g><path style="opacity:1" fill="#252525" d="M 172.5,392.5 C 171.027,395.247 168.694,396.081 165.5,395C 168.03,394.621 170.363,393.787 172.5,392.5 Z"/></g>
<g><path style="opacity:0.494" fill="#8b8b8b" d="M 35.5,395.5 C 36.9063,395.973 37.573,396.973 37.5,398.5C 36.0937,398.027 35.427,397.027 35.5,395.5 Z"/></g>
<g><path style="opacity:1" fill="#e9e9e9" d="M 160.5,393.5 C 161.613,394.946 161.78,396.613 161,398.5C 159.357,405.609 156.857,412.275 153.5,418.5C 151.554,416.956 151.054,414.956 152,412.5C 154.845,406.145 157.679,399.812 160.5,393.5 Z"/></g>
<g><path style="opacity:0.49" fill="#8c8c8c" d="M 322.5,395.5 C 322.573,397.027 321.906,398.027 320.5,398.5C 320.427,396.973 321.094,395.973 322.5,395.5 Z"/></g>
<g><path style="opacity:0.957" fill="#fd9585" d="M 43.5,398.5 C 45.0481,398.821 45.7148,399.821 45.5,401.5C 44.5987,400.71 43.9321,399.71 43.5,398.5 Z"/></g>
<g><path style="opacity:0.455" fill="#969696" d="M 37.5,398.5 C 38.9063,398.973 39.573,399.973 39.5,401.5C 38.0937,401.027 37.427,400.027 37.5,398.5 Z"/></g>
<g><path style="opacity:0.451" fill="#979797" d="M 320.5,398.5 C 320.573,400.027 319.906,401.027 318.5,401.5C 318.427,399.973 319.094,398.973 320.5,398.5 Z"/></g>
<g><path style="opacity:1" fill="#2b2b2b" d="M 165.5,402.5 C 166.497,402.47 167.164,402.97 167.5,404C 166.07,408.238 164.57,412.405 163,416.5C 163.183,411.757 164.016,407.09 165.5,402.5 Z"/></g>
<g><path style="opacity:0.51" fill="#8f8f8f" d="M 39.5,401.5 C 40.9063,401.973 41.573,402.973 41.5,404.5C 40.0937,404.027 39.427,403.027 39.5,401.5 Z"/></g>
<g><path style="opacity:0.502" fill="#909090" d="M 318.5,401.5 C 318.573,403.027 317.906,404.027 316.5,404.5C 316.427,402.973 317.094,401.973 318.5,401.5 Z"/></g>
<g><path style="opacity:0.961" fill="#fd998c" d="M 47.5,404.5 C 49.4456,405.035 50.4456,406.368 50.5,408.5C 49.0256,407.564 48.0256,406.23 47.5,404.5 Z"/></g>
<g><path style="opacity:0.459" fill="#a0a0a0" d="M 45.5,409.5 C 46.9063,409.973 47.573,410.973 47.5,412.5C 46.0937,412.027 45.427,411.027 45.5,409.5 Z"/></g>
<g><path style="opacity:0.722" fill="#909090" d="M 49.5,414.5 C 50.9063,414.973 51.573,415.973 51.5,417.5C 50.0937,417.027 49.427,416.027 49.5,414.5 Z"/></g>
<g><path style="opacity:0.714" fill="#919191" d="M 308.5,414.5 C 308.573,416.027 307.906,417.027 306.5,417.5C 306.427,415.973 307.094,414.973 308.5,414.5 Z"/></g>
<g><path style="opacity:1" fill="#1e1e1e" d="M 159.5,417.5 C 163.164,417 166.164,418.167 168.5,421C 165.326,420.134 161.993,419.467 158.5,419C 159.056,418.617 159.389,418.117 159.5,417.5 Z"/></g>
<g><path style="opacity:0.627" fill="#fdb5b0" d="M 62.5,423.5 C 64.5,423.5 65.5,424.5 65.5,426.5C 64.1667,425.833 63.1667,424.833 62.5,423.5 Z"/></g>
<g><path style="opacity:0.678" fill="#fdafaa" d="M 65.5,426.5 C 68.0892,427.419 70.0892,429.086 71.5,431.5C 68.9108,430.581 66.9108,428.914 65.5,426.5 Z"/></g>
<g><path style="opacity:0.812" fill="#646464" d="M 299.5,424.5 C 297.5,428.5 294.5,431.5 290.5,433.5C 293.167,430.167 296.167,427.167 299.5,424.5 Z"/></g>
<g><path style="opacity:0.553" fill="#f99b96" d="M 80.5,439.5 C 82.0269,439.427 83.0269,440.094 83.5,441.5C 81.9731,441.573 80.9731,440.906 80.5,439.5 Z"/></g>
<g><path style="opacity:0.71" fill="#929292" d="M 63.5,445.5 C 65.0269,445.427 66.0269,446.094 66.5,447.5C 64.9731,447.573 63.9731,446.906 63.5,445.5 Z"/></g>
<g><path style="opacity:0.565" fill="#f9948e" d="M 87.5,444.5 C 89.0269,444.427 90.0269,445.094 90.5,446.5C 88.9731,446.573 87.9731,445.906 87.5,444.5 Z"/></g>
<g><path style="opacity:0.529" fill="#f99891" d="M 90.5,446.5 C 92.0269,446.427 93.0269,447.094 93.5,448.5C 91.9731,448.573 90.9731,447.906 90.5,446.5 Z"/></g>
<g><path style="opacity:0.4" fill="#faaaa5" d="M 93.5,448.5 C 95.0269,448.427 96.0269,449.094 96.5,450.5C 94.9731,450.573 93.9731,449.906 93.5,448.5 Z"/></g>
<g><path style="opacity:0.447" fill="#a3a3a3" d="M 69.5,450.5 C 71.0269,450.427 72.0269,451.094 72.5,452.5C 70.9731,452.573 69.9731,451.906 69.5,450.5 Z"/></g>
<g><path style="opacity:0.89" fill="#f98d82" d="M 126.5,464.5 C 129.152,464.41 131.485,465.076 133.5,466.5C 130.848,466.59 128.515,465.924 126.5,464.5 Z"/></g>
<g><path style="opacity:0.71" fill="#f7877f" d="M 133.5,466.5 C 136.152,466.41 138.485,467.076 140.5,468.5C 137.848,468.59 135.515,467.924 133.5,466.5 Z"/></g>
</svg>
